<?xml version="1.0" encoding="UTF-8" standalone="no"?>
<svg
   xmlns:dc="http://purl.org/dc/elements/1.1/"
   xmlns:cc="http://creativecommons.org/ns#"
   xmlns:rdf="http://www.w3.org/1999/02/22-rdf-syntax-ns#"
   xmlns:svg="http://www.w3.org/2000/svg"
   xmlns="http://www.w3.org/2000/svg"
   xmlns:sodipodi="http://sodipodi.sourceforge.net/DTD/sodipodi-0.dtd"
   xmlns:inkscape="http://www.inkscape.org/namespaces/inkscape"
   sodipodi:docname="shelter_icon.svg"
   inkscape:version="1.0 (4035a4f, 2020-05-01)"
   id="svg8"
   version="1.1"
   viewBox="0 0 52.916668 52.916668"
   height="200"
   width="200">
  <defs
     id="defs2" />
  <sodipodi:namedview
     showborder="true"
     inkscape:window-maximized="0"
     inkscape:window-y="0"
     inkscape:window-x="0"
     inkscape:window-height="878"
     inkscape:window-width="1252"
     inkscape:snap-global="false"
     showgrid="false"
     inkscape:document-rotation="0"
     inkscape:current-layer="layer1"
     inkscape:document-units="mm"
     inkscape:cy="-139.21922"
     inkscape:cx="390.14086"
     inkscape:zoom="0.8239881"
     inkscape:pageshadow="2"
     inkscape:pageopacity="0"
     borderopacity="1.0"
     bordercolor="#666666"
     pagecolor="#474747"
     id="base"
     units="px" />
  <metadata
     id="metadata5">
    <rdf:RDF>
      <cc:Work
         rdf:about="">
        <dc:format>image/svg+xml</dc:format>
        <dc:type
           rdf:resource="http://purl.org/dc/dcmitype/StillImage" />
        <dc:title></dc:title>
      </cc:Work>
    </rdf:RDF>
  </metadata>
  <g
     id="layer1"
     inkscape:groupmode="layer"
     inkscape:label="Layer 1">
    <g
       id="g81">
      <circle
         style="opacity:0.536977;fill:#ff0000;fill-opacity:1;stroke:none;stroke-width:0.457052;stroke-linecap:round;stroke-linejoin:round;stroke-miterlimit:4;stroke-dasharray:none;stroke-opacity:1"
         id="path1596-6"
         cx="-34.158066"
         cy="-15.274598"
         r="26.458334"
         transform="rotate(-159.09295)" />
      <path
         sodipodi:nodetypes="ssscssscccccccsssccccsscssscccscccssscscscscssssssscscsccccscccsscccscscscccccscccccccccccccsccsccssssscsccssscsscccccsssccssscccccsccsscsssccscscsssccscssccccsssssccscssscssccsscsccccssscsscc"
         id="path914-0"
         d="m 15.074272,44.67673 c -3.49796,-1.94451 -6.5249703,-3.64556 -6.7266403,-3.78007 -0.27799,-0.18541 -0.36669,-3.415929 -0.36669,-13.353674 V 14.433891 L 14.607762,9.7238739 c 3.64474,-2.590503 6.75784,-4.710003 6.918,-4.710003 0.16012,0 4.42244,2.037848 9.47176,4.528554 l 9.18059,4.5285671 0.1511,2.790475 0.1511,2.790476 3.47671,1.083717 3.47669,1.083717 v 8.2528 8.252812 l -12.99981,4.958041 c -7.14989,2.72692 -12.99982,4.95153 -12.99982,4.9436 0,-0.008 -2.86196,-1.60539 -6.35994,-3.5499 z m 13.35952,0.41898 2.6747,-1.03384 0.0817,-6.266766 0.0817,-6.266759 -2.31928,0.196054 c -1.27562,0.107855 -2.63888,0.196052 -3.02948,0.196052 h -0.7102 v 7.104546 c 0,4.024703 0.11839,7.104553 0.27293,7.104553 0.15016,0 1.47654,-0.46523 2.94762,-1.03384 z m 7.70754,-2.93685 1.76939,-0.64515 v -5.081115 c 0,-2.794611 0.0494,-5.31578 0.0494,-5.31578 l -2.3924,0.134804 -1.8895,0.117928 v 5.717244 c 0,4.099389 0.0981,5.717269 0.34684,5.717269 0.19078,0 1.14309,-0.29033 2.11626,-0.64518 z m -16.36989,-7.034861 v -3.145195 l -1.53694,-0.104772 c -0.84532,-0.05758 -1.59356,-0.04811 -1.66276,0.02125 -0.0693,0.06924 -0.12591,1.316346 -0.12591,2.771267 v 2.645308 l 1.28486,0.4548 c 2.10679,0.745749 2.04065,0.831368 2.04065,-2.642642 z m -5.13945,-0.903797 c 0,-2.714561 -0.11032,-2.904398 -1.68749,-2.904398 -0.71165,0 -0.73108,0.06354 -0.73108,2.393377 0,2.3358 0.0199,2.40068 0.8314,2.697021 1.55738,0.568812 1.58717,0.52778 1.58717,-2.186 z m -3.76244,-2.819065 c -0.0989,-0.257882 -0.48042,-0.390038 -0.9592103,-0.332324 -0.7648,0.09222 -0.79485,0.168388 -0.7931,2.010232 0.002,2.014204 0.14884,2.341785 1.1310903,2.520722 0.5461,0.09953 0.6134,-0.07769 0.69507,-1.830163 0.0498,-1.067181 0.0169,-2.132994 -0.0738,-2.368467 z m 32.10503,3.244328 c 0.26354,-0.0034 0.37791,-0.604726 0.37791,-1.988372 v -1.984235 l -0.98253,0.09472 -0.98255,0.09472 -0.0902,2.079771 c -0.0885,2.039938 -0.0771,2.076206 0.60464,1.893636 0.38222,-0.102386 0.86498,-0.187997 1.07283,-0.190271 z m 3.05226,-0.644822 c 0,0 0.0464,-0.805954 0.0464,-1.661978 0,-0.922115 0.002,-1.599248 0.002,-1.599248 0,0 -0.52764,-0.02823 -0.9092,-0.02823 h -0.90695 v 1.813924 c 0,0.997668 0.12253,1.82468 0.12253,1.82468 0,0 1.08962,-0.227292 1.64478,-0.349118 z m -0.0131,-7.600494 0.0908,-1.735404 -1.79601,-0.106502 c 0,0 -0.0481,0.791317 -0.0481,1.744032 0,0.863818 0.0761,1.934121 0.0761,1.934121 l 1.7269,0.04204 c 0,0 -0.11596,-0.610463 -0.0496,-1.87837 z m -2.72156,-0.29938 -0.0547,-1.84287 c 0,0 -1.55308,-0.268244 -2.00044,-0.236113 v 1.984248 1.984235 h 1.07256 1.07253 z m -32.28723,-0.680221 c 0,-2.347867 -0.0911,-2.486148 -1.3204403,-2.002985 -0.46963,0.184588 -0.56164,0.53707 -0.54685,2.09499 0.009,1.030196 0.0257,1.941103 0.0355,2.024239 0.009,0.08318 0.42591,0.151154 0.9247403,0.151154 h 0.90697 z m 3.62784,-0.637723 c 0,-2.733551 -0.0761,-2.837542 -1.64308,-2.241809 -0.73546,0.279613 -0.77549,0.409655 -0.77549,2.519341 0,1.223474 0.0639,2.288372 0.14189,2.366422 0.078,0.07805 0.62223,0.08581 1.20928,0.01729 l 1.06736,-0.124619 z m 19.58684,0.277831 0.0872,-2.427473 -1.59873,-0.320703 c -0.8793,-0.176394 -1.70687,-0.216552 -1.83902,-0.08923 -0.13212,0.127306 -0.20019,1.306907 -0.1511,2.621342 l 0.0891,2.389895 1.36045,0.178931 c 0.74824,0.09838 1.49649,0.155496 1.66276,0.126836 0.16632,-0.02868 0.34153,-1.14447 0.38945,-2.479587 z m 4.59884,0.543398 -8.9e-4,-2.026798 -2.72009,-0.42412 v 2.065863 c 0,1.136222 0.0908,2.156557 0.20154,2.267404 0.11088,0.110843 0.72306,0.201549 1.36045,0.201549 h 1.15889 z m -19.04628,-1.727462 c 0,-2.664192 -0.0735,-3.178502 -0.43456,-3.039959 -0.23901,0.09175 -0.98725,0.315596 -1.66278,0.49748 l -1.22818,0.330723 v 2.709223 2.709248 h 1.66276 1.66276 z m 8.01152,0.336801 v -2.718751 l -1.5116,-0.351017 c -0.83138,-0.193058 -1.88573,-0.364077 -2.34299,-0.380038 l -0.8314,-0.02902 v 2.998024 c 0,2.112152 0.11164,3.044953 0.37792,3.15686 0.20783,0.08741 1.2622,0.132699 2.34298,0.100788 l 1.96509,-0.05805 z m -16.77881,-6.992968 v -2.289328 l -0.95735,0.606141 c -0.9222103,0.583909 -0.9564303,0.679319 -0.9321703,2.599418 0.0131,1.096295 0.0366,2.064791 0.0504,2.152191 0.0132,0.08741 0.43334,-0.05211 0.9321703,-0.310077 0.8866,-0.45848 0.90697,-0.520412 0.90697,-2.758345 z m 27.81045,0.717676 -0.004,-2.191828 -1.22175,-0.513259 c -1.48197,-0.622563 -1.56069,-0.501295 -1.43295,2.207872 0.0902,1.911059 0.10336,1.937375 1.14927,2.294069 0.58195,0.198465 1.16014,0.368522 1.28486,0.377904 0.12478,0.0092 0.22535,-0.969261 0.22366,-2.174758 z m -25.27766,0.525004 1.09505,-0.457544 v -2.565674 c 0,-1.411114 -0.0859,-2.565663 -0.19105,-2.565663 -0.10506,0 -0.64925,0.283178 -1.20928,0.629293 -1.01739,0.628777 -1.01824,0.631292 -1.01824,3.023218 0,1.316653 0.0515,2.393901 0.11427,2.393901 0.0628,0 0.607,-0.20589 1.20927,-0.457531 z m 20.74592,-2.226118 v -2.381345 l -1.49206,-0.641873 c -0.82065,-0.353029 -1.63692,-0.641875 -1.81393,-0.641875 -0.20211,0 -0.32186,0.946774 -0.32186,2.544537 v 2.544536 l 1.28486,0.454813 c 2.32397,0.822614 2.34299,0.80736 2.34299,-1.878793 z m -14.51852,-3.619363 0.008,-3.1286621 -0.98255,0.5821921 c -2.51834,1.492207 -2.343,1.190223 -2.343,4.034689 0,1.428779 0.0776,2.675448 0.17252,2.770376 0.0949,0.09494 0.83997,-0.120484 1.65564,-0.478682 l 1.48305,-0.651264 z m 8.10667,1.035886 -0.0882,-2.642221 -2.07057,-0.882465 c -1.13877,-0.4853571 -2.19787,-0.8824541 -2.35351,-0.8824541 -0.16294,0 -0.24642,1.3107461 -0.19682,3.0893541 l 0.0861,3.089367 2.11626,0.648603 c 1.16393,0.35674 2.22389,0.552632 2.35544,0.43533 0.13155,-0.117308 0.19959,-1.402283 0.1511,-2.855514 z"
         style="fill:#ffffff;fill-opacity:1;stroke:none;stroke-width:0.457052;stroke-miterlimit:4;stroke-dasharray:none;stroke-opacity:1" />
    </g>
  </g>
</svg>
